<?xml version="1.0" standalone="no"?>
<!DOCTYPE svg PUBLIC "-//W3C//DTD SVG 20010904//EN"
 "http://www.w3.org/TR/2001/REC-SVG-20010904/DTD/svg10.dtd">
<svg version="1.0" xmlns="http://www.w3.org/2000/svg"
 width="1152.000000pt" height="1152.000000pt" viewBox="0 0 1152.000000 1152.000000"
 preserveAspectRatio="xMidYMid meet">
<metadata>
Created by potrace 1.14, written by Peter Selinger 2001-2017
</metadata>
<g transform="translate(0.000000,1152.000000) scale(0.100000,-0.100000)"
fill="#000000" stroke="none">
<path d="M777 10743 c-4 -3 -7 -2249 -7 -4990 l0 -4983 4988 2 4987 3 0 4985
0 4985 -4981 3 c-2739 1 -4984 -1 -4987 -5z m9448 -4983 l0 -4505 -4465 0
-4465 0 -3 4495 c-1 2472 0 4501 3 4508 3 10 902 12 4467 10 l4463 -3 0 -4505z"/>
<path d="M1330 5760 l0 -4470 4430 0 4430 0 0 4470 0 4470 -4430 0 -4430 0 0
-4470z m2255 2225 l0 -50 -232 -3 -233 -2 0 -800 0 -800 840 0 840 0 0 800 0
800 -235 0 -235 0 0 55 0 55 700 0 700 0 0 -55 0 -55 -230 0 -230 0 0 -1655 0
-1655 230 0 230 0 0 -55 0 -55 -701 0 -700 0 3 53 3 52 233 3 232 2 0 800 0
800 -840 0 -840 0 0 -800 0 -800 233 -2 232 -3 3 -52 3 -53 -706 0 -706 0 3
53 3 52 233 3 232 2 0 1655 0 1655 -232 2 -233 3 -3 39 c-6 72 -66 66 705 64
l698 -3 0 -50z m4225 22 c215 -39 415 -104 588 -191 87 -43 276 -164 297 -189
6 -7 29 -27 53 -46 23 -18 39 -38 36 -43 -4 -6 -3 -8 3 -5 10 6 105 -88 173
-172 106 -130 222 -346 279 -519 107 -323 120 -729 35 -1067 -79 -313 -220
-563 -438 -780 -187 -186 -392 -311 -638 -389 -286 -91 -386 -98 -1368 -94
l-805 3 -3 48 -3 47 235 0 236 0 0 1665 0 1665 -235 0 -235 0 0 45 0 46 848
-4 c749 -3 858 -5 942 -20z m-1111 -4603 c28 -8 54 -21 57 -28 4 -11 -22 -86
-30 -86 -2 0 -20 7 -39 15 -42 17 -139 20 -168 5 -12 -7 -19 -21 -19 -40 0
-31 12 -38 155 -79 100 -29 143 -82 129 -158 -17 -88 -112 -140 -239 -130 -70
5 -175 40 -175 58 0 5 8 24 17 44 18 38 17 38 88 11 92 -35 207 -10 191 41 -7
23 -21 29 -148 67 -66 20 -92 33 -112 57 -43 51 -33 143 21 191 51 46 176 61
272 32z m627 1 c76 -23 78 -26 57 -71 -9 -21 -18 -41 -20 -43 -1 -2 -20 4 -43
13 -85 34 -190 15 -190 -34 0 -27 22 -39 120 -66 104 -27 142 -50 160 -94 15
-37 8 -98 -15 -134 -45 -69 -181 -94 -303 -57 -88 26 -94 35 -71 87 l19 42 42
-21 c60 -30 171 -36 198 -12 23 21 26 48 8 63 -7 6 -55 22 -107 37 -109 30
-134 45 -155 90 -20 42 -20 78 0 122 39 80 175 116 300 78z m-4376 -90 l0 -95
110 0 110 0 0 95 0 95 60 0 60 0 0 -250 0 -250 -60 0 -60 0 0 100 0 100 -110
0 -110 0 0 -100 0 -100 -65 0 -65 0 0 250 0 250 65 0 65 0 0 -95z m1010 50 l0
-45 -130 0 -130 0 0 -55 0 -55 115 0 115 0 0 -45 0 -45 -115 0 -115 0 0 -55 0
-55 135 0 135 0 0 -50 0 -50 -195 0 -195 0 0 250 0 250 190 0 190 0 0 -45z
m497 -100 l118 -144 3 144 3 145 59 0 60 0 0 -250 0 -250 -49 0 -50 0 -118
144 -118 144 -3 -144 -3 -144 -59 0 -60 0 0 250 0 250 49 0 50 0 118 -145z
m758 -2 l120 -148 3 148 3 147 59 0 60 0 0 -250 0 -250 -52 0 -53 1 -120 147
-120 147 -3 -148 -3 -147 -59 0 -60 0 0 250 0 250 53 0 52 0 120 -147z m915
102 l0 -45 -130 0 -130 0 0 -55 0 -55 115 0 115 0 0 -45 0 -45 -115 0 -115 0
0 -55 0 -55 135 0 135 0 0 -50 0 -50 -195 0 -195 0 0 250 0 250 190 0 190 0 0
-45z m1930 0 l0 -45 -135 0 -135 0 0 -55 0 -55 120 0 120 0 0 -45 0 -45 -120
0 -120 0 0 -55 0 -54 138 -3 137 -3 3 -47 3 -48 -200 0 -201 0 0 243 c0 134 3
247 7 250 3 4 91 7 195 7 l188 0 0 -45z m388 -60 c35 -58 67 -103 72 -100 4 3
34 50 66 105 l59 100 58 0 c31 0 57 -2 57 -4 0 -3 -43 -76 -95 -163 l-95 -158
0 -87 0 -88 -60 0 -60 0 0 89 0 90 -84 140 c-123 203 -118 181 -44 181 l63 0
63 -105z m-3649 -820 c55 -32 75 -68 75 -130 0 -62 -20 -98 -75 -130 -28 -16
-52 -20 -129 -20 l-95 0 -3 140 c-1 76 0 145 3 153 8 23 181 12 224 -13z m306
-130 l0 -150 -35 0 -35 0 -3 140 c-1 76 0 145 3 153 3 8 17 12 37 10 l33 -3 0
-150z m399 141 c45 -19 53 -34 29 -58 -19 -19 -22 -19 -51 -4 -38 20 -65 20
-101 1 -33 -17 -41 -33 -41 -84 0 -61 54 -102 115 -87 22 6 25 12 25 51 0 45
0 45 35 45 l35 0 0 -64 0 -64 -40 -16 c-135 -54 -270 39 -246 169 8 42 50 93
91 111 40 17 107 17 149 0z m286 -141 l0 -155 -35 0 -35 0 0 155 0 155 35 0
35 0 0 -155z m408 123 c3 -27 2 -28 -47 -28 l-51 0 0 -125 0 -125 -35 0 -34 0
-3 123 -3 122 -47 3 c-42 3 -48 6 -48 26 0 12 3 26 7 30 4 3 63 5 132 4 l126
-3 3 -27z m350 -106 c33 -75 64 -145 68 -155 5 -14 0 -17 -30 -17 -33 0 -39 4
-52 35 l-14 35 -68 0 c-68 0 -69 0 -83 -32 -11 -26 -21 -34 -46 -36 -20 -2
-33 1 -33 8 0 11 86 213 117 273 11 21 21 27 47 27 33 0 33 -1 94 -138z m282
13 l0 -125 75 0 75 0 0 -30 0 -30 -110 0 -110 0 0 155 0 155 35 0 35 0 0 -125z"/>
<path d="M6950 6277 l0 -1667 364 0 c406 0 524 10 692 58 93 27 222 86 288
131 17 11 34 18 38 15 5 -3 7 -2 6 3 -1 4 35 44 80 87 162 157 269 354 336
624 104 417 101 1013 -9 1435 -130 497 -425 812 -866 921 -164 41 -223 46
-586 53 l-343 6 0 -1666z"/>
<path d="M4650 2355 l0 -98 52 6 c68 8 98 36 98 92 0 56 -30 84 -98 92 l-52 6
0 -98z"/>
<path d="M6438 2395 c-9 -16 -19 -40 -22 -52 -7 -21 -4 -23 33 -23 47 0 49 6
22 65 l-18 40 -15 -30z"/>
</g>
</svg>
